<?xml version="1.0" standalone="no"?>
<!DOCTYPE svg PUBLIC "-//W3C//DTD SVG 20010904//EN"
 "http://www.w3.org/TR/2001/REC-SVG-20010904/DTD/svg10.dtd">
<svg version="1.0" xmlns="http://www.w3.org/2000/svg"
 width="272.000000pt" height="272.000000pt" viewBox="0 0 272.000000 272.000000"
 preserveAspectRatio="xMidYMid meet">
<metadata>
Created by potrace 1.11, written by Peter Selinger 2001-2013
</metadata>
<g transform="translate(0.000000,272.000000) scale(0.100000,-0.100000)"
fill="#000000" stroke="none">
<path d="M440 2332 c-89 -30 -136 -59 -210 -128 -122 -115 -182 -233 -196
-384 -18 -205 76 -330 248 -330 84 0 150 24 220 80 29 23 51 44 49 47 -1 3 6
16 18 29 11 13 21 25 20 27 0 1 5 16 12 32 7 17 13 33 14 38 2 4 4 9 5 12 1 3
4 14 5 25 1 11 4 23 5 28 6 20 5 88 -3 98 -4 7 -7 16 -6 20 5 20 -21 62 -57
93 -35 31 -41 33 -91 28 -29 -3 -59 -12 -66 -19 -45 -47 -61 -114 -34 -137 11
-8 19 -5 37 14 13 13 27 22 31 19 5 -3 9 -1 9 4 0 20 36 6 69 -27 33 -33 36
-40 35 -91 -2 -71 -4 -77 -37 -128 -78 -119 -223 -142 -318 -50 -98 95 -111
259 -33 406 36 67 109 152 131 152 7 0 13 4 13 10 0 16 72 48 136 59 106 20
209 -13 294 -92 47 -44 119 -141 124 -168 2 -8 11 -31 20 -52 9 -21 14 -42 11
-47 -3 -5 -1 -11 4 -15 5 -3 10 -13 10 -23 0 -9 3 -42 7 -72 10 -79 6 -260 -6
-260 -4 0 -6 -11 -5 -25 2 -14 -1 -27 -6 -31 -5 -3 -7 -10 -3 -15 3 -5 0 -16
-6 -24 -7 -8 -9 -15 -5 -15 4 0 2 -7 -5 -15 -7 -8 -9 -15 -5 -15 5 0 1 -8 -8
-17 -8 -10 -16 -22 -16 -28 -2 -23 -13 -45 -22 -45 -6 0 -7 -5 -4 -10 3 -5 1
-10 -4 -10 -6 0 -11 -6 -11 -14 0 -8 -10 -22 -22 -30 -12 -9 -20 -16 -16 -16
3 0 -8 -16 -25 -35 -17 -19 -37 -35 -44 -35 -7 0 -13 -4 -13 -9 0 -14 -77 -50
-131 -62 -63 -14 -148 3 -190 38 -30 26 -69 91 -69 117 0 33 -32 25 -81 -20
-27 -26 -49 -50 -49 -55 0 -18 65 -81 104 -102 57 -30 90 -37 176 -39 77 -1
190 19 190 34 0 4 9 8 20 8 11 0 20 5 20 10 0 6 7 10 15 10 35 0 218 199 218
238 0 6 4 12 8 12 13 0 41 59 34 70 -3 6 -2 10 4 10 17 0 51 119 56 198 2 24
6 46 9 49 10 11 6 164 -8 252 l-12 85 40 60 c48 70 72 88 86 66 6 -9 10 -233
10 -566 0 -303 3 -554 6 -557 4 -3 16 -1 28 5 11 7 24 11 29 10 4 -1 7 2 7 7
0 5 14 14 30 21 l30 12 0 419 c0 273 3 419 10 419 6 0 10 6 10 14 0 8 3 16 8
18 4 2 23 23 42 48 19 25 43 54 52 65 10 11 24 29 33 40 12 14 18 16 21 7 3
-6 10 -10 15 -6 5 3 14 2 20 -2 15 -9 137 -9 146 0 13 12 21 6 16 -14 -3 -11
-9 -20 -14 -20 -5 0 -9 -7 -9 -15 0 -8 -4 -15 -10 -15 -5 0 -10 -7 -10 -15 0
-8 -4 -15 -8 -15 -5 0 -19 -21 -32 -47 -13 -27 -26 -50 -30 -53 -13 -9 -88
-185 -113 -265 -81 -258 -45 -469 96 -562 50 -33 53 -34 136 -35 89 -2 144 17
219 77 30 23 82 84 82 95 0 5 6 7 13 5 7 -3 13 -27 14 -58 1 -28 3 -85 5 -125
2 -40 1 -75 -3 -78 -4 -2 -8 -12 -8 -22 1 -72 -60 -156 -172 -239 -120 -89
-202 -195 -163 -210 9 -3 31 11 60 41 79 79 129 80 276 3 63 -33 92 -42 144
-45 85 -6 191 24 252 71 39 31 143 140 171 181 79 115 128 311 117 476 -12
188 -65 311 -185 429 -89 87 -100 96 -129 105 -12 4 -22 12 -22 17 0 6 -4 7
-10 4 -5 -3 -20 0 -32 7 -13 7 -26 13 -30 14 -5 1 -9 2 -10 4 -5 3 -42 10 -63
12 -11 1 -24 4 -30 8 -11 7 -215 4 -255 -3 -14 -3 -36 -8 -50 -12 -14 -3 -29
-7 -35 -9 -5 -1 -21 -8 -35 -16 -14 -7 -27 -13 -30 -13 -9 1 -55 -22 -70 -35
-8 -7 -17 -11 -20 -10 -3 1 -34 -26 -68 -60 l-64 -63 7 43 c25 147 114 363
178 430 9 10 17 22 17 26 0 5 21 30 46 56 41 43 44 50 31 63 -13 13 -19 12
-53 -11 -85 -58 -166 -54 -227 9 -19 19 -36 35 -40 35 -3 0 -49 -56 -103 -125
l-99 -125 -5 94 c-6 114 -25 149 -83 154 -61 5 -83 -12 -198 -152 -4 -4 -19
17 -34 48 -14 31 -31 56 -36 56 -5 0 -9 4 -9 10 0 31 -86 108 -160 143 -64 30
-232 35 -310 9z m1586 -610 c48 0 157 -39 220 -80 110 -72 189 -164 244 -285
44 -99 55 -160 55 -302 -1 -166 -18 -234 -91 -350 -39 -64 -85 -115 -101 -115
-7 0 -13 -3 -13 -8 0 -14 -62 -34 -110 -35 -38 -1 -68 9 -142 45 -121 60 -124
61 -188 60 l-55 0 35 26 c97 73 202 196 216 255 2 9 7 27 10 40 8 26 7 144 -1
207 -3 25 -6 60 -7 78 -1 17 -4 32 -8 32 -12 0 -3 194 9 198 6 2 9 7 6 12 -3
5 2 16 11 24 8 9 12 16 8 16 -8 0 33 38 55 50 17 9 6 30 -17 30 -35 0 -157
-93 -146 -111 3 -5 0 -9 -7 -9 -7 0 -9 -3 -6 -7 4 -3 1 -13 -5 -21 -7 -8 -13
-19 -14 -26 -2 -6 -7 -24 -12 -41 -4 -16 -8 -65 -8 -107 1 -70 -6 -98 -16 -67
-3 9 -10 9 -27 0 -12 -7 -21 -15 -18 -17 3 -3 -6 -17 -20 -30 -29 -29 -46 -21
-31 16 6 14 12 40 15 58 3 30 1 33 -19 30 -13 -2 -23 -10 -23 -18 0 -8 -4 -19
-8 -25 -5 -5 -17 -25 -28 -43 -10 -18 -35 -39 -56 -48 -21 -9 -44 -20 -52 -23
-15 -8 -58 5 -98 27 -53 30 -95 189 -73 274 41 153 207 279 389 294 24 2 46 6
49 8 2 3 14 1 27 -4 13 -5 36 -9 51 -8z m-176 -571 c0 -6 -4 -13 -10 -16 -5
-3 -10 1 -10 9 0 9 5 16 10 16 6 0 10 -4 10 -9z"/>
</g>
</svg>
